# xmcd
#
# Track frame offsets:
# 150
# 11050
# 39110
# 66742
# 91184
# 116841
# 138855
# 158039
# 180096
# 218725
# 254801
# 263951
# 277255
#
# Disc length: 4050 seconds
#
# Revision: 0
# Processed by: cddbd v1.5.1PL0 Copyright (c) Steve Scherf et al.
# Submitted via: Audion 3.0.2 (http://www.panic.com/audion/)
#
DISCID=bc0fd00d
DTITLE=Signaldrift/The Tuning Test - s/t split LP
DYEAR=1900
DGENRE=
TTITLE0=sd1
TTITLE1=sd2
TTITLE2=tt3
TTITLE3=tt4
TTITLE4=sd5
TTITLE5=sd6
TTITLE6=tt7
TTITLE7=tt8
TTITLE8=sd9
TTITLE9=tt10
TTITLE10=sd11
TTITLE11=tt12
TTITLE12=sd13
EXTD=
EXTT0=
EXTT1=
EXTT2=
EXTT3=
EXTT4=
EXTT5=
EXTT6=
EXTT7=
EXTT8=
EXTT9=
EXTT10=
EXTT11=
EXTT12=
PLAYORDER=
